<?xml version="1.0" standalone="no"?>
<!DOCTYPE svg PUBLIC "-//W3C//DTD SVG 1.1//EN" "http://www.w3.org/Graphics/SVG/1.1/DTD/svg11.dtd">
<svg width="100%" height="100%" viewBox="0 0 62 39" version="1.1" xmlns="http://www.w3.org/2000/svg" xmlns:xlink="http://www.w3.org/1999/xlink" xml:space="preserve" style="fill-rule:evenodd;clip-rule:evenodd;stroke-linejoin:round;stroke-miterlimit:1.41421;">
    <path id="Behance" d="M55.4441,5.9728L40.2488,5.9728L40.2488,2.1984L55.4454,2.1984L55.4454,5.9728L55.4441,5.9728ZM30.133,21.4504C31.1134,22.969 31.6034,24.8129 31.6034,26.9777C31.6034,29.2164 31.051,31.2247 29.9271,32.9987C29.2121,34.1726 28.3244,35.1642 27.2578,35.9625C26.0565,36.8858 24.6343,37.5188 22.9994,37.8571C21.3592,38.1959 19.584,38.3671 17.6717,38.3671L0.677708,38.3671L0.677708,0.632947L18.9011,0.632947C23.4946,0.707674 26.7511,2.03851 28.6741,4.65211C29.828,6.25507 30.3997,8.1785 30.3997,10.4142C30.3997,12.7212 29.8211,14.5671 28.6559,15.9695C28.0078,16.7558 27.0503,17.4711 25.7827,18.1167C27.7026,18.8196 29.1594,19.9264 30.133,21.4504ZM9.38011,15.5096L17.3649,15.5096C19.0057,15.5096 20.3322,15.1977 21.3538,14.5742C22.3748,13.9518 22.8842,12.8452 22.8842,11.2565C22.8842,9.5013 22.2097,8.33627 20.8574,7.77554C19.6951,7.38597 18.2079,7.18534 16.4033,7.18534L9.38011,7.18534L9.38011,15.5096ZM23.653,26.4387C23.653,24.4786 22.8519,23.1235 21.2529,22.3964C20.3587,21.9832 19.0971,21.772 17.4795,21.7569L9.38011,21.7569L9.38011,31.8128L17.3541,31.8128C18.9923,31.8128 20.2603,31.5984 21.1754,31.151C22.8255,30.3284 23.653,28.763 23.653,26.4387ZM61.082,20.3C61.2656,21.5345 61.3486,23.3257 61.3149,25.6669L41.6353,25.6669C41.7439,28.3833 42.6817,30.2829 44.4602,31.37C45.5327,32.0517 46.8331,32.3846 48.3558,32.3846C49.9614,32.3846 51.2701,31.9786 52.2775,31.1442C52.8264,30.7019 53.3106,30.0776 53.7292,29.2899L60.9424,29.2899C60.7535,30.8943 59.885,32.5215 58.3242,34.175C55.906,36.8033 52.5146,38.1212 48.159,38.1212C44.5608,38.1212 41.3897,37.0097 38.6373,34.7948C35.894,32.5722 34.5162,28.9676 34.5162,23.9672C34.5162,19.2782 35.7531,15.6892 38.2353,13.1911C40.7266,10.6883 43.9419,9.44265 47.9051,9.44265C50.2541,9.44265 52.3717,9.86253 54.2609,10.7067C56.1441,11.5516 57.7006,12.8815 58.9264,14.7092C60.0357,16.3188 60.7491,18.1799 61.082,20.3ZM53.982,21.0041C53.8498,19.1258 53.2226,17.7042 52.0934,16.7326C50.9735,15.7583 49.5744,15.2692 47.9051,15.2692C46.0882,15.2692 44.6853,15.792 43.6885,16.8196C42.6849,17.845 42.0604,19.2392 41.8045,21.0043L53.982,21.0043L53.982,21.0041Z" style="fill:none;stroke-width:1px;stroke:rgb(252,252,252);"/>
</svg>
