<?xml version="1.0" standalone="no"?>
<!DOCTYPE svg PUBLIC "-//W3C//DTD SVG 1.1//EN" "http://www.w3.org/Graphics/SVG/1.1/DTD/svg11.dtd">
<svg width="100%" height="100%" viewBox="0 0 62 38" version="1.1" xmlns="http://www.w3.org/2000/svg" xmlns:xlink="http://www.w3.org/1999/xlink" xml:space="preserve" style="fill-rule:evenodd;clip-rule:evenodd;stroke-linejoin:round;stroke-miterlimit:1.41421;">
    <path id="Layer1" d="M40.1657,1.13645L35.5307,1.12901C30.3235,1.12901 26.9584,4.58151 26.9584,9.92516L26.9584,13.9808L22.2982,13.9808C21.8955,13.9808 21.5694,14.3072 21.5694,14.7099L21.5694,20.5861C21.5694,20.9888 21.8959,21.3149 22.2982,21.3149L26.9584,21.3149L26.9584,36.1422C26.9584,36.5449 27.2845,36.871 27.6872,36.871L33.7675,36.871C34.1702,36.871 34.4963,36.5445 34.4963,36.1422L34.4963,21.3149L39.9452,21.3149C40.3479,21.3149 40.674,20.9888 40.674,20.5861L40.6762,14.7099C40.6762,14.5166 40.5992,14.3314 40.4628,14.1946C40.3263,14.0577 40.1404,13.9808 39.947,13.9808L34.4963,13.9808L34.4963,10.5428C34.4963,8.89034 34.8901,8.05148 37.0426,8.05148L40.1649,8.05037C40.5672,8.05037 40.8933,7.72389 40.8933,7.32157L40.8933,1.86525C40.8933,1.46329 40.5676,1.13719 40.1657,1.13645Z" style="fill:none;stroke-width:1px;stroke:rgb(252,252,252);"/>
</svg>
