<?xml version="1.0" standalone="no"?>
<!DOCTYPE svg PUBLIC "-//W3C//DTD SVG 1.1//EN" "http://www.w3.org/Graphics/SVG/1.1/DTD/svg11.dtd">
<svg width="100%" height="100%" viewBox="0 0 40 40" version="1.1" xmlns="http://www.w3.org/2000/svg" xmlns:xlink="http://www.w3.org/1999/xlink" xml:space="preserve" style="fill-rule:evenodd;clip-rule:evenodd;stroke-linejoin:round;stroke-miterlimit:1.41421;">
    <g id="Layer1">
        <clipPath id="tag1">
            <path d="M38.8402,20.0397L20.0792,1.27871L1.31827,20.0397L20.0792,38.8006L38.8402,20.0397Z"/>
        </clipPath>
        <g clip-path="url(#tag1)">
            <path id="Layer11" d="M25.6254,8.80845L22.7654,8.80386C19.5524,8.80386 17.476,10.9342 17.476,14.2314L17.476,16.7339L14.6005,16.7339C14.352,16.7339 14.1508,16.9353 14.1508,17.1838L14.1508,20.8096C14.1508,21.0581 14.3523,21.2593 14.6005,21.2593L17.476,21.2593L17.476,30.4083C17.476,30.6567 17.6772,30.858 17.9257,30.858L21.6775,30.858C21.9259,30.858 22.1272,30.6565 22.1272,30.4083L22.1272,21.2593L25.4893,21.2593C25.7378,21.2593 25.939,21.0581 25.939,20.8096L25.9404,17.1838C25.9404,17.0645 25.8929,16.9502 25.8087,16.8658C25.7245,16.7813 25.6098,16.7339 25.4904,16.7339L22.1272,16.7339L22.1272,14.6125C22.1272,13.5929 22.3701,13.0753 23.6983,13.0753L25.6249,13.0746C25.8731,13.0746 26.0743,12.8731 26.0743,12.6249L26.0743,9.25815C26.0743,9.01013 25.8734,8.80891 25.6254,8.80845Z" style="fill:url(#tag2);fill-rule:nonzero;stroke-width:0.62px;stroke:rgb(252,252,252);"/>
        </g>
        <path d="M38.8402,20.0397L20.0792,1.27871L1.31827,20.0397L20.0792,38.8006L38.8402,20.0397Z" style="fill:none;stroke-width:1px;stroke-linecap:round;stroke:white;"/>
    </g>
    <defs>
        <linearGradient id="tag2" x1="0" y1="0" x2="1" y2="0" gradientUnits="userSpaceOnUse" gradientTransform="matrix(15.7437,-9.74535,9.74535,15.7437,12.6911,27.3372)"><stop offset="0%" style="stop-color:rgb(226,0,116);stop-opacity:1"/><stop offset="100%" style="stop-color:rgb(189,0,206);stop-opacity:1"/></linearGradient>
    </defs>
</svg>
