<?xml version="1.0" standalone="no"?>
<!DOCTYPE svg PUBLIC "-//W3C//DTD SVG 1.1//EN" "http://www.w3.org/Graphics/SVG/1.1/DTD/svg11.dtd">
<svg width="100%" height="100%" viewBox="0 0 62 38" version="1.1" xmlns="http://www.w3.org/2000/svg" xmlns:xlink="http://www.w3.org/1999/xlink" xml:space="preserve" style="fill-rule:evenodd;clip-rule:evenodd;stroke-linejoin:round;stroke-miterlimit:1.41421;">
    <path id="Github__x28_alt_x29__3_" d="M41.9027,0.853376C42.5101,2.24381 42.9164,4.5711 42.3208,6.26722C44.7388,8.34594 45.5948,13.3851 44.4075,17.5229C47.8727,17.7932 51.9967,17.4007 54.6671,18.4618C52.1742,18.1403 48.7622,17.5151 45.5612,17.7262C44.9538,17.7715 44.0406,17.7025 44.0859,18.5585C47.8214,18.8563 51.5194,19.164 54.5685,20.1205C51.5293,19.6274 47.8629,18.8779 44.0859,18.7675C42.5476,21.8284 39.4097,23.347 35.0786,23.6666C35.5421,24.6823 36.4493,25.059 36.6505,26.7058C36.9739,29.1218 36.1673,32.6777 36.968,34.2971C37.3703,35.0781 38.0153,35.0899 38.4394,35.7427C37.3802,37.0168 34.7512,35.6046 34.4613,34.2971C33.9525,32.0349 35.2423,28.5302 33.8263,26.9977C33.9249,29.4591 33.2602,32.9224 33.9249,35.1294C34.2009,36.0011 34.98,36.3285 34.7808,37.1154C29.8502,37.6183 31.9112,30.7431 31.1006,26.6861C30.3611,26.7551 30.6845,27.7945 30.6825,28.2462C30.6628,32.2163 31.4931,37.6342 27.233,37.1115C27.1029,36.2851 27.8109,36.0011 28.0712,35.2299C28.8542,33.0092 27.9273,29.682 28.2803,26.9977C26.6551,28.2363 28.4578,32.5082 27.446,34.7152C26.868,35.9695 24.9925,36.5238 23.5665,35.9675C23.7519,35.0307 24.7242,35.1767 25.1384,34.2971C25.7143,33.0644 25.1403,31.3032 25.3455,29.4966C22.3338,30.1001 20.0006,29.4097 18.8508,27.5145C18.344,26.6723 18.2216,25.6625 17.6004,24.919C16.9948,24.1715 16.0068,24.0769 15.7109,23.0572C19.4483,22.1479 19.5884,26.8952 22.9432,26.9977C23.9767,27.0391 24.5072,26.7098 25.4578,26.4869C25.7299,25.2878 26.2921,24.4042 27.1283,23.7652C22.9629,23.2052 19.5193,21.9054 17.9198,18.7695C14.1291,18.9569 10.6599,19.4638 7.43721,20.2389C10.3621,19.1817 13.9515,18.7932 17.8093,18.6729C17.5766,17.3062 15.5886,17.6808 14.3579,17.7283C12.0525,17.8207 9.15917,18.1145 7.33287,18.4617C9.98753,17.517 13.6914,17.6353 17.277,17.6274C16.1843,14.1857 16.5611,8.71676 18.9613,6.67744C18.2828,4.96944 18.4939,2.18857 19.3755,0.853376C22.0518,0.969691 23.6691,2.12947 25.3534,3.25362C27.4341,2.65799 29.6135,2.35824 32.4713,2.51604C33.6723,2.58305 34.9168,3.11959 35.8103,3.04267C36.692,2.95586 37.6643,1.96386 38.536,1.57334C39.6543,1.08412 40.6108,0.896734 41.9027,0.853376Z" style="fill:none;stroke-width:1px;stroke:rgb(252,252,252);"/>
</svg>
