<?xml version="1.0" standalone="no"?>
<!DOCTYPE svg PUBLIC "-//W3C//DTD SVG 1.1//EN" "http://www.w3.org/Graphics/SVG/1.1/DTD/svg11.dtd">
<svg width="100%" height="100%" viewBox="0 0 62 38" version="1.1" xmlns="http://www.w3.org/2000/svg" xmlns:xlink="http://www.w3.org/1999/xlink" xml:space="preserve" style="fill-rule:evenodd;clip-rule:evenodd;stroke-linejoin:round;stroke-miterlimit:1.41421;">
    <path id="Layer11" d="M45.2852,1.23736C43.3475,1.23736 41.7713,2.81375 41.7713,4.75132C41.7713,5.20494 41.8608,5.65761 42.0323,6.07714L36.2624,11.8471C34.7981,10.7582 32.9853,10.1132 31.0248,10.1132C29.4588,10.1132 27.9315,10.5298 26.5841,11.3211L22.959,7.15832C23.2045,6.67073 23.333,6.13221 23.333,5.58344C23.333,3.64624 21.7568,2.07022 19.8194,2.07022C17.882,2.07022 16.3058,3.64624 16.3058,5.58344C16.3058,7.52101 17.882,9.09738 19.8194,9.09738C20.1855,9.09738 20.5441,9.04149 20.8892,8.93084L24.474,13.047C23.0231,14.6646 22.2288,16.7312 22.2288,18.9091C22.2288,19.7819 22.3583,20.645 22.6141,21.4793L14.7195,27.0982C14.1648,26.753 13.5321,26.5719 12.8717,26.5719C10.9343,26.5721 9.35813,28.1481 9.35813,30.0854C9.35813,32.023 10.9343,33.5993 12.8717,33.5993C14.8091,33.5993 16.3853,32.023 16.3853,30.0854C16.3853,29.8261 16.3569,29.569 16.3003,29.3174L23.8291,23.9591C24.7994,25.337 26.1533,26.4172 27.7069,27.0534L26.8675,29.4203C25.0815,29.5836 23.6754,31.094 23.6754,32.9192C23.6754,34.8565 25.2516,36.4326 27.1889,36.4326C29.1263,36.4326 30.7026,34.8565 30.7026,32.9192C30.7026,31.8886 30.2456,30.9115 29.4658,30.2458L30.3759,27.6799C30.5964,27.6967 30.8137,27.7051 31.0248,27.7051C32.1514,27.7051 33.2472,27.4934 34.287,27.0753L38.0621,31.6259C37.8009,32.1257 37.664,32.6803 37.664,33.2476C37.664,35.1852 39.24,36.7615 41.1771,36.7615C43.1148,36.7615 44.6912,35.1852 44.6912,33.2476C44.6912,31.3103 43.1148,29.7344 41.1771,29.7344C40.8297,29.7344 40.4884,29.7851 40.1585,29.8856L36.6547,25.6619C38.6722,23.9823 39.8204,21.5456 39.8204,18.9093C39.8204,17.0009 39.2093,15.2329 38.1729,13.7897L43.9589,8.00377C44.3785,8.175 44.8314,8.26458 45.2852,8.26458C47.2224,8.26458 48.7985,6.6886 48.7985,4.75142C48.7985,2.81375 47.2224,1.23736 45.2852,1.23736ZM31.0248,14.1661C33.64,14.1661 35.7677,16.2938 35.7677,18.9091C35.7677,21.5245 33.6401,23.6522 31.0248,23.6522C28.4093,23.6522 26.2815,21.5245 26.2815,18.9091C26.2815,16.2938 28.4093,14.1661 31.0248,14.1661Z" style="fill:none;stroke-width:0.94px;stroke:white;"/>
</svg>
