<?xml version="1.0" standalone="no"?>
<!DOCTYPE svg PUBLIC "-//W3C//DTD SVG 1.1//EN" "http://www.w3.org/Graphics/SVG/1.1/DTD/svg11.dtd">
<svg width="100%" height="100%" viewBox="0 0 62 50" version="1.1" xmlns="http://www.w3.org/2000/svg" xmlns:xlink="http://www.w3.org/1999/xlink" xml:space="preserve" style="fill-rule:evenodd;clip-rule:evenodd;stroke-linejoin:round;stroke-miterlimit:1.41421;">
	<g>
		

    <path id="Layer11" d="M54.533,0.245954C51.8327,0.245954 49.636,2.44284 49.636,5.14307C49.636,5.77523 49.7608,6.40608 49.9997,6.99075L41.9587,15.0318C39.9181,13.5144 37.3918,12.6154 34.6595,12.6154C32.4772,12.6154 30.3487,13.196 28.471,14.2988L23.4189,8.49749C23.7611,7.81798 23.9402,7.06749 23.9402,6.30272C23.9402,3.60301 21.7435,1.40664 19.0436,1.40664C16.3436,1.40664 14.147,3.60301 14.147,6.30272C14.147,9.00294 16.3436,11.1998 19.0436,11.1998C19.5538,11.1998 20.0535,11.1219 20.5344,10.9677L25.5303,16.704C23.5083,18.9584 22.4013,21.8384 22.4013,24.8735C22.4013,26.0899 22.5818,27.2927 22.9383,28.4554L11.9363,36.286C11.1632,35.8049 10.2815,35.5526 9.36118,35.5526C6.66115,35.5528 4.46455,37.7491 4.46455,40.449C4.46455,43.1492 6.66115,45.346 9.36118,45.346C12.0612,45.346 14.2578,43.1492 14.2578,40.449C14.2578,40.0876 14.2181,39.7293 14.1393,39.3787L24.6315,31.9113C25.9838,33.8315 27.8705,35.337 30.0357,36.2235L28.8659,39.5221C26.3769,39.7497 24.4173,41.8546 24.4173,44.3982C24.4173,47.0981 26.6139,49.2946 29.3138,49.2946C32.0138,49.2946 34.2105,47.0981 34.2105,44.3982C34.2105,42.9619 33.5736,41.6002 32.4869,40.6726L33.7552,37.0967C34.0626,37.1201 34.3653,37.1318 34.6595,37.1318C36.2296,37.1318 37.7567,36.8367 39.2058,36.2541L44.4668,42.5959C44.1028,43.2924 43.912,44.0653 43.912,44.8559C43.912,47.5561 46.1084,49.7529 48.808,49.7529C51.5083,49.7529 53.7053,47.5561 53.7053,44.8559C53.7053,42.1561 51.5083,39.9598 48.808,39.9598C48.3238,39.9598 47.8481,40.0305 47.3884,40.1705L42.5054,34.2844C45.3171,31.9436 46.9172,28.5478 46.9172,24.8738C46.9172,22.2143 46.0656,19.7503 44.6213,17.7391L52.6847,9.67572C53.2695,9.91436 53.9007,10.0392 54.533,10.0392C57.2328,10.0392 59.4293,7.84289 59.4293,5.1432C59.4293,2.44284 57.2328,0.245954 54.533,0.245954ZM34.6595,18.2636C38.3042,18.2636 41.2694,21.2288 41.2694,24.8735C41.2694,28.5184 38.3043,31.4836 34.6595,31.4836C31.0146,31.4836 28.0493,28.5184 28.0493,24.8735C28.0493,21.2288 31.0146,18.2636 34.6595,18.2636Z" style="fill:url(#tag1);fill-rule:nonzero;stroke-width:1.31px;stroke:white;"/>
    <defs>
        <linearGradient id="tag1" x1="0" y1="0" x2="1" y2="0" gradientUnits="userSpaceOnUse" gradientTransform="matrix(57.2961,-36.8561,36.8561,57.2961,7.01599,53.9222)"><stop offset="0%" style="stop-color:rgb(229,0,109);stop-opacity:1"/><stop offset="100%" style="stop-color:rgb(184,0,218);stop-opacity:1"/></linearGradient>
    </defs>
	</g>
</svg>
