<?xml version="1.0" standalone="no"?>
<!DOCTYPE svg PUBLIC "-//W3C//DTD SVG 1.1//EN" "http://www.w3.org/Graphics/SVG/1.1/DTD/svg11.dtd">
<svg width="100%" height="100%" viewBox="0 0 62 50" version="1.1" xmlns="http://www.w3.org/2000/svg" xmlns:xlink="http://www.w3.org/1999/xlink" xml:space="preserve" style="fill-rule:evenodd;clip-rule:evenodd;stroke-linejoin:round;stroke-miterlimit:1.41421;">
    <style type="text/css" >
        g {
            transition: all ease-in-out 1s;
        }
        g.colored path{
            fill:url(#tag1);
        }
        g.notColored path{
            fill:none;
            stroke: #FFFFFF;
        }
    </style>
    <g id="sSs" class="colored">
        <path d="M8.4153,33.945C7.01698,33.945 5.88353,32.8125 5.88353,31.4132L5.88353,18.7547C5.88353,17.3565 7.01698,16.223 8.4153,16.223C9.81347,16.223 10.9469,17.3565 10.9469,18.7547L10.9469,31.4132C10.9469,32.8093 9.81347,33.945 8.4153,33.945Z" style="fill-rule:nonzero;"/>
        <path d="M15.8003,40.2753C14.4021,40.2753 13.2685,39.1418 13.2685,37.7436L13.2685,12.4223C13.2685,11.024 14.4021,9.89055 15.8003,9.89055C17.1985,9.89055 18.332,11.024 18.332,12.4223L18.332,37.7436C18.333,39.1418 17.1985,40.2753 15.8003,40.2753Z" style="fill-rule:nonzero;"/>
        <path d="M23.1853,37.109C21.7871,37.109 20.6536,35.9756 20.6536,34.5774L20.6536,15.5884C20.6536,14.1902 21.7871,13.0568 23.1853,13.0568C24.5836,13.0568 25.7181,14.1902 25.7181,15.5884L25.7181,34.5774C25.717,35.9756 24.5836,37.109 23.1853,37.109Z" style="fill-rule:nonzero;"/>
        <path d="M30.5704,43.4404C29.1722,43.4404 28.0386,42.3081 28.0386,40.9088L28.0386,9.25815C28.0386,7.85993 29.1722,6.72644 30.5704,6.72644C31.9686,6.72644 33.102,7.85993 33.102,9.25815L33.102,40.9077C33.102,42.307 31.9686,43.4404 30.5704,43.4404Z" style="fill-rule:nonzero;"/>
        <path d="M37.9544,49.7698C36.5572,49.7698 35.4227,48.6362 35.4227,47.238L35.4227,2.92782C35.4227,1.5296 36.5572,0.39611 37.9544,0.39611C39.3537,0.39611 40.486,1.5296 40.486,2.92782L40.486,47.238C40.486,48.6362 39.3537,49.7698 37.9544,49.7698Z" style="fill-rule:nonzero;"/>
        <path d="M45.3415,40.2753C43.9422,40.2753 42.8098,39.1418 42.8098,37.7436L42.8098,12.4223C42.8098,11.024 43.9422,9.89055 45.3415,9.89055C46.7387,9.89055 47.8732,11.024 47.8732,12.4223L47.8732,37.7436C47.8732,39.1418 46.7387,40.2753 45.3415,40.2753Z" style="fill-rule:nonzero;"/>
        <path d="M52.7255,30.7798C51.3273,30.7798 50.1937,29.6462 50.1937,28.2492L50.1937,21.9189C50.1937,20.5205 51.3273,19.3871 52.7255,19.3871C54.1237,19.3871 55.2572,20.5205 55.2572,21.9189L55.2572,28.2492C55.2572,29.6462 54.1237,30.7798 52.7255,30.7798Z" style="fill-rule:nonzero;"/>
    </g>
    <defs>
        <linearGradient id="tag1" x1="0" y1="0" x2="1" y2="0" gradientUnits="userSpaceOnUse" gradientTransform="matrix(38.7026,-24.8459,24.8459,38.7026,20.0881,43.1858)"><stop offset="0%" style="stop-color:rgb(229,0,109);stop-opacity:1"/><stop offset="47%" style="stop-color:rgb(213,0,148);stop-opacity:1"/><stop offset="99%" style="stop-color:rgb(170,1,251);stop-opacity:1"/><stop offset="100%" style="stop-color:rgb(170,1,251);stop-opacity:1"/></linearGradient>
        <linearGradient id="tag2" x1="0" y1="0" x2="1" y2="0" gradientUnits="userSpaceOnUse" gradientTransform="matrix(38.7026,-24.8459,24.8459,38.7026,20.0881,43.1858)"><stop offset="0%" style="stop-color:rgb(229,0,109);stop-opacity:1"/><stop offset="47%" style="stop-color:rgb(213,0,148);stop-opacity:1"/><stop offset="99%" style="stop-color:rgb(170,1,251);stop-opacity:1"/><stop offset="100%" style="stop-color:rgb(170,1,251);stop-opacity:1"/></linearGradient>
        <linearGradient id="tag3" x1="0" y1="0" x2="1" y2="0" gradientUnits="userSpaceOnUse" gradientTransform="matrix(38.7026,-24.8459,24.8459,38.7026,20.0881,43.1858)"><stop offset="0%" style="stop-color:rgb(229,0,109);stop-opacity:1"/><stop offset="47%" style="stop-color:rgb(213,0,148);stop-opacity:1"/><stop offset="99%" style="stop-color:rgb(170,1,251);stop-opacity:1"/><stop offset="100%" style="stop-color:rgb(170,1,251);stop-opacity:1"/></linearGradient>
        <linearGradient id="tag4" x1="0" y1="0" x2="1" y2="0" gradientUnits="userSpaceOnUse" gradientTransform="matrix(38.7026,-24.8459,24.8459,38.7026,20.0881,43.1858)"><stop offset="0%" style="stop-color:rgb(229,0,109);stop-opacity:1"/><stop offset="47%" style="stop-color:rgb(213,0,148);stop-opacity:1"/><stop offset="99%" style="stop-color:rgb(170,1,251);stop-opacity:1"/><stop offset="100%" style="stop-color:rgb(170,1,251);stop-opacity:1"/></linearGradient>
        <linearGradient id="tag5" x1="0" y1="0" x2="1" y2="0" gradientUnits="userSpaceOnUse" gradientTransform="matrix(38.7026,-24.8459,24.8459,38.7026,20.0881,43.1858)"><stop offset="0%" style="stop-color:rgb(229,0,109);stop-opacity:1"/><stop offset="47%" style="stop-color:rgb(213,0,148);stop-opacity:1"/><stop offset="99%" style="stop-color:rgb(170,1,251);stop-opacity:1"/><stop offset="100%" style="stop-color:rgb(170,1,251);stop-opacity:1"/></linearGradient>
        <linearGradient id="tag6" x1="0" y1="0" x2="1" y2="0" gradientUnits="userSpaceOnUse" gradientTransform="matrix(38.7026,-24.8459,24.8459,38.7026,20.0881,43.1858)"><stop offset="0%" style="stop-color:rgb(229,0,109);stop-opacity:1"/><stop offset="47%" style="stop-color:rgb(213,0,148);stop-opacity:1"/><stop offset="99%" style="stop-color:rgb(170,1,251);stop-opacity:1"/><stop offset="100%" style="stop-color:rgb(170,1,251);stop-opacity:1"/></linearGradient>
        <linearGradient id="tag7" x1="0" y1="0" x2="1" y2="0" gradientUnits="userSpaceOnUse" gradientTransform="matrix(38.7026,-24.8459,24.8459,38.7026,20.0881,43.1858)"><stop offset="0%" style="stop-color:rgb(229,0,109);stop-opacity:1"/><stop offset="47%" style="stop-color:rgb(213,0,148);stop-opacity:1"/><stop offset="99%" style="stop-color:rgb(170,1,251);stop-opacity:1"/><stop offset="100%" style="stop-color:rgb(170,1,251);stop-opacity:1"/></linearGradient>
    </defs>
</svg>
