<?xml version="1.0" standalone="no"?>
<!DOCTYPE svg PUBLIC "-//W3C//DTD SVG 1.1//EN" "http://www.w3.org/Graphics/SVG/1.1/DTD/svg11.dtd">
<svg width="100%" height="100%" viewBox="0 0 62 38" version="1.1" xmlns="http://www.w3.org/2000/svg" xmlns:xlink="http://www.w3.org/1999/xlink" xml:space="preserve" style="fill-rule:evenodd;clip-rule:evenodd;stroke-linejoin:round;stroke-miterlimit:1.41421;">
    <g id="Layer1">
        <path id="Behance" d="M55.4441,5.4728L40.2488,5.4728L40.2488,1.6984L55.4454,1.6984L55.4454,5.4728L55.4441,5.4728L55.4441,5.4728ZM30.133,20.9504C31.1134,22.469 31.6034,24.3129 31.6034,26.4777C31.6034,28.7164 31.051,30.7247 29.9271,32.4987C29.2121,33.6726 28.3244,34.6642 27.2578,35.4625C26.0565,36.3858 24.6343,37.0188 22.9994,37.3571C21.3592,37.6959 19.584,37.8671 17.6717,37.8671L0.677708,37.8671L0.677708,0.132947L18.9011,0.132947C23.4946,0.207674 26.7511,1.53851 28.6741,4.15211C29.828,5.75507 30.3997,7.6785 30.3997,9.91423C30.3997,12.2212 29.8211,14.0671 28.6559,15.4695C28.0078,16.2558 27.0503,16.9711 25.7827,17.6167C27.7026,18.3196 29.1594,19.4264 30.133,20.9504ZM9.38011,15.0096L17.3649,15.0096C19.0057,15.0096 20.3322,14.6977 21.3538,14.0742C22.3748,13.4518 22.8842,12.3452 22.8842,10.7565C22.8842,9.0013 22.2097,7.83627 20.8574,7.27554C19.6951,6.88597 18.2079,6.68534 16.4033,6.68534L9.38011,6.68534L9.38011,15.0096ZM23.653,25.9387C23.653,23.9786 22.8519,22.6235 21.2529,21.8964C20.3587,21.4832 19.0971,21.272 17.4795,21.2569L9.38011,21.2569L9.38011,31.3128L17.3541,31.3128C18.9923,31.3128 20.2603,31.0984 21.1754,30.651C22.8255,29.8284 23.653,28.263 23.653,25.9387ZM61.082,19.8C61.2656,21.0345 61.3486,22.8257 61.3149,25.1669L41.6353,25.1669C41.7439,27.8833 42.6817,29.7829 44.4602,30.87C45.5327,31.5517 46.8331,31.8846 48.3558,31.8846C49.9614,31.8846 51.2701,31.4786 52.2775,30.6442C52.8264,30.2019 53.3106,29.5776 53.7292,28.7899L60.9424,28.7899C60.7535,30.3943 59.885,32.0215 58.3242,33.675C55.906,36.3033 52.5146,37.6212 48.159,37.6212C44.5608,37.6212 41.3897,36.5097 38.6373,34.2948C35.894,32.0722 34.5162,28.4676 34.5162,23.4672C34.5162,18.7782 35.7531,15.1892 38.2353,12.6911C40.7266,10.1883 43.9419,8.94265 47.9051,8.94265C50.2541,8.94265 52.3717,9.36253 54.2609,10.2067C56.1441,11.0516 57.7006,12.3815 58.9264,14.2092C60.0357,15.8188 60.7491,17.6799 61.082,19.8ZM53.982,20.5041C53.8498,18.6258 53.2226,17.2042 52.0934,16.2326C50.9735,15.2583 49.5744,14.7692 47.9051,14.7692C46.0882,14.7692 44.6853,15.292 43.6885,16.3196C42.6849,17.345 42.0604,18.7392 41.8045,20.5043L53.982,20.5043L53.982,20.5041Z" style="fill:url(#tag1);fill-rule:nonzero;stroke-width:1px;stroke:rgb(252,252,252);"/>
    </g>
    <defs>
        <linearGradient id="tag1" x1="0" y1="0" x2="1" y2="0" gradientUnits="userSpaceOnUse" gradientTransform="matrix(-64.0788,35.8837,-35.8837,-64.0788,65.3438,7.50398)"><stop offset="0%" style="stop-color:rgb(184,0,218);stop-opacity:1"/><stop offset="100%" style="stop-color:rgb(229,0,109);stop-opacity:1"/></linearGradient>
    </defs>
</svg>
