<?xml version="1.0" standalone="no"?>
<!DOCTYPE svg PUBLIC "-//W3C//DTD SVG 1.1//EN" "http://www.w3.org/Graphics/SVG/1.1/DTD/svg11.dtd">
<svg width="100%" height="100%" viewBox="0 0 62 38" version="1.1" xmlns="http://www.w3.org/2000/svg" xmlns:xlink="http://www.w3.org/1999/xlink" xml:space="preserve" style="fill-rule:evenodd;clip-rule:evenodd;stroke-linejoin:round;stroke-miterlimit:1.41421;">
    <g id="Layer1">
        <path d="M39.1657,1.13645L34.5307,1.12901C29.3235,1.12901 25.9584,4.58151 25.9584,9.92516L25.9584,13.9808L21.2982,13.9808C20.8955,13.9808 20.5694,14.3072 20.5694,14.7099L20.5694,20.5861C20.5694,20.9888 20.8959,21.3149 21.2982,21.3149L25.9584,21.3149L25.9584,36.1422C25.9584,36.5449 26.2845,36.871 26.6872,36.871L32.7675,36.871C33.1702,36.871 33.4963,36.5445 33.4963,36.1422L33.4963,21.3149L38.9452,21.3149C39.3479,21.3149 39.674,20.9888 39.674,20.5861L39.6762,14.7099C39.6762,14.5166 39.5992,14.3314 39.4628,14.1946C39.3263,14.0577 39.1404,13.9808 38.947,13.9808L33.4963,13.9808L33.4963,10.5428C33.4963,8.89034 33.8901,8.05148 36.0426,8.05148L39.1649,8.05037C39.5672,8.05037 39.8933,7.72389 39.8933,7.32157L39.8933,1.86525C39.8933,1.46329 39.5676,1.13719 39.1657,1.13645Z" style="fill:url(#tag1);fill-rule:nonzero;stroke-width:1px;stroke:rgb(252,252,252);"/>
    </g>
    <defs>
        <linearGradient id="tag1" x1="0" y1="0" x2="1" y2="0" gradientUnits="userSpaceOnUse" gradientTransform="matrix(25.515,-15.7938,15.7938,25.515,18.2037,31.165)"><stop offset="0%" style="stop-color:rgb(226,0,116);stop-opacity:1"/><stop offset="100%" style="stop-color:rgb(189,0,206);stop-opacity:1"/></linearGradient>
    </defs>
</svg>
